<?xml version="1.0" encoding="UTF-8" standalone="no"?>
<!-- Created with Inkscape (http://www.inkscape.org/) -->

<svg
   xmlns:dc="http://purl.org/dc/elements/1.1/"
   xmlns:cc="http://creativecommons.org/ns#"
   xmlns:rdf="http://www.w3.org/1999/02/22-rdf-syntax-ns#"
   xmlns:svg="http://www.w3.org/2000/svg"
   xmlns="http://www.w3.org/2000/svg"
   xmlns:sodipodi="http://sodipodi.sourceforge.net/DTD/sodipodi-0.dtd"
   xmlns:inkscape="http://www.inkscape.org/namespaces/inkscape"
   version="1.1"
   id="svg4639"
   width="320"
   height="320"
   viewBox="0 0 320 320"
   sodipodi:docname="himeLogoColor4.svg"
   inkscape:version="0.92.5 (2060ec1f9f, 2020-04-08)"
   inkscape:export-filename="/home/mknoesel/Pictures/himeLogoColor3.png"
   inkscape:export-xdpi="300"
   inkscape:export-ydpi="300">
  <metadata
     id="metadata4645">
    <rdf:RDF>
      <cc:Work
         rdf:about="">
        <dc:format>image/svg+xml</dc:format>
        <dc:type
           rdf:resource="http://purl.org/dc/dcmitype/StillImage" />
        <dc:title />
      </cc:Work>
    </rdf:RDF>
  </metadata>
  <defs
     id="defs4643" />
  <sodipodi:namedview
     pagecolor="#ffffff"
     bordercolor="#666666"
     borderopacity="1"
     objecttolerance="10"
     gridtolerance="10"
     guidetolerance="10"
     inkscape:pageopacity="0"
     inkscape:pageshadow="2"
     inkscape:window-width="3768"
     inkscape:window-height="2096"
     id="namedview4641"
     showgrid="false"
     inkscape:zoom="4"
     inkscape:cx="75.80562"
     inkscape:cy="157.24806"
     inkscape:window-x="72"
     inkscape:window-y="27"
     inkscape:window-maximized="1"
     inkscape:current-layer="svg4639"
     inkscape:snap-page="true"
     showguides="true"
     inkscape:guide-bbox="true">
    <sodipodi:guide
       position="0,310"
       orientation="0,1"
       id="guide5352"
       inkscape:locked="false"
       inkscape:label=""
       inkscape:color="rgb(0,0,255)" />
    <sodipodi:guide
       position="10,0"
       orientation="1,0"
       id="guide5357"
       inkscape:locked="false"
       inkscape:label=""
       inkscape:color="rgb(0,0,255)" />
    <sodipodi:guide
       position="310,0"
       orientation="1,0"
       id="guide5359"
       inkscape:locked="false"
       inkscape:label=""
       inkscape:color="rgb(0,0,255)" />
    <sodipodi:guide
       position="0,10"
       orientation="0,1"
       id="guide5361"
       inkscape:locked="false"
       inkscape:label=""
       inkscape:color="rgb(0,0,255)" />
    <sodipodi:guide
       position="0,290"
       orientation="0,1"
       id="guide5363"
       inkscape:locked="false"
       inkscape:label=""
       inkscape:color="rgb(0,0,255)" />
  </sodipodi:namedview>
  <rect
     style="fill:#ffffff;fill-opacity:1;stroke:#000000;stroke-width:4;stroke-linecap:round;stroke-linejoin:round;stroke-miterlimit:4;stroke-dasharray:none;stroke-opacity:1"
     id="rect5342"
     width="300"
     height="300"
     x="10"
     y="10"
     ry="20"
     inkscape:label="bounding box" />
  <path
     style="fill:none;stroke:#ce7200;stroke-width:3.5;stroke-linecap:round;stroke-linejoin:round;stroke-opacity:1;stroke-miterlimit:4;stroke-dasharray:none"
     d="m 154.94477,113.96676 c 10.78338,-23.599687 11.49049,-58.866637 11.49049,-58.866637 0,0 5.92202,36.150834 14.84924,35.885669 8.92722,-0.265165 17.32412,-44.194174 17.32412,-44.194174 0,0 -1.67938,29.079766 10.25304,31.289475 11.93243,2.209709 20.94804,-31.377863 20.94804,-31.377863 0,0 -7.60139,32.6153 6.98268,40.65864 14.58408,8.043339 28.28427,-19.887379 28.28427,-19.887379 0,0 -16.44023,41.896079 -7.51301,47.464539 8.92723,5.56847 27.48878,-18.826714 27.48878,-18.826714 0,0 -13.78858,28.991374 -6.8059,54.270444"
     id="path5320"
     inkscape:connector-curvature="0"
     inkscape:label="crownBase" />
  <path
     id="path4684"
     style="fill:none;stroke:#ce7200;stroke-width:3.5;stroke-linecap:round;stroke-linejoin:round;stroke-opacity:1;stroke-miterlimit:4;stroke-dasharray:none;fill-opacity:1"
     d="m 110.50042,110.38479 c -0.4794,7.07106 -1.31834,15.34062 0.59924,24.68881 m -22.771236,1.55803 c 11.505466,-1.43818 12.943646,-2.03743 21.812446,-1.43818 8.8688,0.59924 14.14214,2.03742 22.41169,1.07864 M 88.448272,109.78554 c 10.067283,-1.07863 13.662738,0 22.171988,0.2397 8.50926,0.2397 19.65518,-0.59924 19.65518,-0.59924 0,0 -0.59925,-5.27334 -0.2397,-9.70774 0.35954,-4.434399 -1.31834,-15.340622 -1.31834,-15.340622 0,0 -8.74895,0.359546 -17.97729,-0.599243 -9.22834,-0.958789 -20.853655,0.119849 -20.853655,0.119849 m 20.853655,-0.119849 c 0.2397,-8.029856 0.11985,-15.580319 -1.07863,-22.411689 M 88.328424,141.18588 c -0.599244,-17.0185 -0.599244,-31.04079 0.599243,-44.343987 1.198486,-13.303195 0.359545,-35.23549 0.359545,-35.23549 0,0 10.786378,-1.198486 20.973508,-0.83894 10.18713,0.359545 12.8238,0.719091 21.81245,-0.239698 M 61.841881,56.093367 c -2.876366,8.6291 -5.752733,19.415474 -6.711522,28.883514 -0.958789,9.46804 -3.475609,20.014719 -5.393187,24.928509 m 27.56518,19.05593 c -8.868797,-8.6291 -16.539108,-16.7788 -26.846088,-22.05214 M 47.3402,75.62869 c 10.786374,0.83894 13.063498,0.359546 20.494112,-0.359546 7.430613,-0.719092 8.269554,0.239697 8.269554,0.239697 0,0 1.797729,41.347769 -26.126997,64.718249 M 61.841881,56.093367 c -3.355761,9.228343 -5.99243,20.973506 -7.430613,31.280486 -1.438184,10.306981 -3.235913,17.258197 -4.674096,22.531537"
     inkscape:label="letters" />
  <path
     style="fill:none;stroke:#ce7200;stroke-width:3.5;stroke-linecap:round;stroke-linejoin:round;stroke-opacity:1;stroke-miterlimit:4;stroke-dasharray:none;fill-opacity:1"
     d="m 164.84427,50.503929 c 5.39169,-2.740039 -1.23744,-14.760854 -5.03814,-13.258252 -3.8007,1.502601 0.0884,15.99829 5.03814,13.258252 z"
     id="path5324"
     inkscape:connector-curvature="0"
     inkscape:label="crown1" />
  <path
     style="fill:none;stroke:#ce7200;stroke-width:3.5;stroke-linecap:round;stroke-linejoin:round;stroke-opacity:1;stroke-miterlimit:4;stroke-dasharray:none;fill-opacity:1"
     d="m 198.16667,42.372201 c 7.07107,-1.590991 4.77298,-19.533825 -2.65165,-17.942835 -7.42462,1.59099 -3.97747,18.649941 2.65165,17.942835 z"
     id="path5322"
     inkscape:connector-curvature="0"
     inkscape:label="crown2" />
  <path
     style="fill:none;stroke:#ce7200;stroke-width:3.5;stroke-linecap:round;stroke-linejoin:round;stroke-opacity:1;stroke-miterlimit:4;stroke-dasharray:none;fill-opacity:1"
     d="m 230.6052,41.930259 c 8.57367,2.474874 12.28598,-19.445436 5.92202,-21.124815 -6.36396,-1.679379 -14.93763,17.412504 -5.92202,21.124815 z"
     id="path5326"
     inkscape:connector-curvature="0"
     inkscape:label="crown3" />
  <path
     style="fill:none;stroke:#ce7200;stroke-width:3.5;stroke-linecap:round;stroke-linejoin:round;stroke-opacity:1;stroke-miterlimit:4;stroke-dasharray:none;fill-opacity:1"
     d="m 267.46314,63.408627 c 6.18718,4.861359 15.9099,-9.634329 11.31371,-13.965359 -4.5962,-4.331029 -16.79379,7.954952 -11.31371,13.965359 z"
     id="path5328"
     inkscape:connector-curvature="0"
     inkscape:label="crown4" />
  <path
     style="fill:none;stroke:#ce7200;stroke-width:3.5;stroke-linecap:round;stroke-linejoin:round;stroke-opacity:1;stroke-miterlimit:4;stroke-dasharray:none;fill-opacity:1"
     d="m 288.49957,92.841947 c 2.56326,3.800699 13.96535,-4.242641 11.22532,-8.485281 -2.74004,-4.242641 -14.49569,4.154252 -11.22532,8.485281 z"
     id="path5332"
     inkscape:connector-curvature="0"
     inkscape:label="crown5" />
  <text
     xml:space="preserve"
     style="font-style:normal;font-weight:normal;font-size:142.35913086px;line-height:1.25;font-family:sans-serif;letter-spacing:19.45000076px;word-spacing:0px;fill:#820009;fill-opacity:1;stroke:none;stroke-width:1;stroke-miterlimit:4;stroke-dasharray:none;stroke-opacity:1"
     x="39.430611"
     y="254.26782"
     id="text5336"
     inkscape:label="HIME"><tspan
       sodipodi:role="line"
       id="tspan5334"
       x="39.430611"
       y="254.26782"
       style="font-style:normal;font-variant:normal;font-weight:normal;font-stretch:normal;font-size:142.35913086px;font-family:'alphabetized cassette tapes';-inkscape-font-specification:'alphabetized cassette tapes, Normal';font-variant-ligatures:normal;font-variant-caps:normal;font-variant-numeric:normal;font-feature-settings:normal;text-align:start;letter-spacing:19.45000076px;writing-mode:lr-tb;text-anchor:start;fill:#820009;fill-opacity:1;stroke:none;stroke-width:1;stroke-miterlimit:4;stroke-dasharray:none;stroke-opacity:1">HIME</tspan></text>
  <text
     xml:space="preserve"
     style="font-style:normal;font-variant:normal;font-weight:normal;font-stretch:normal;font-size:40px;line-height:1.25;font-family:'alphabetized cassette tapes';-inkscape-font-specification:'alphabetized cassette tapes, Normal';font-variant-ligatures:normal;font-variant-caps:normal;font-variant-numeric:normal;font-feature-settings:normal;text-align:start;letter-spacing:6.80000019px;word-spacing:0px;writing-mode:lr-tb;text-anchor:start;fill:#8500c5;fill-opacity:1;stroke:none;"
     x="36.869999"
     y="298.46399"
     id="text5340"
     inkscape:label="Neutron Detector"><tspan
       sodipodi:role="line"
       id="tspan5338"
       x="36.869999"
       y="298.46399">Neutron Detector</tspan></text>
</svg>
