<?xml version="1.0" encoding="UTF-8" standalone="no"?>
<!-- Created with Inkscape (http://www.inkscape.org/) -->

<svg
   xmlns:dc="http://purl.org/dc/elements/1.1/"
   xmlns:cc="http://creativecommons.org/ns#"
   xmlns:rdf="http://www.w3.org/1999/02/22-rdf-syntax-ns#"
   xmlns:svg="http://www.w3.org/2000/svg"
   xmlns="http://www.w3.org/2000/svg"
   xmlns:sodipodi="http://sodipodi.sourceforge.net/DTD/sodipodi-0.dtd"
   xmlns:inkscape="http://www.inkscape.org/namespaces/inkscape"
   version="1.1"
   id="svg4639"
   width="320"
   height="320"
   viewBox="0 0 320 320"
   sodipodi:docname="himeLogo.svg"
   inkscape:version="0.92.5 (2060ec1f9f, 2020-04-08)"
   inkscape:export-filename="/home/mknoesel/Pictures/himeLogoColor3.png"
   inkscape:export-xdpi="300"
   inkscape:export-ydpi="300">
  <metadata
     id="metadata4645">
    <rdf:RDF>
      <cc:Work
         rdf:about="">
        <dc:format>image/svg+xml</dc:format>
        <dc:type
           rdf:resource="http://purl.org/dc/dcmitype/StillImage" />
        <dc:title />
      </cc:Work>
    </rdf:RDF>
  </metadata>
  <defs
     id="defs4643" />
  <sodipodi:namedview
     pagecolor="#ffffff"
     bordercolor="#666666"
     borderopacity="1"
     objecttolerance="10"
     gridtolerance="10"
     guidetolerance="10"
     inkscape:pageopacity="0"
     inkscape:pageshadow="2"
     inkscape:window-width="3768"
     inkscape:window-height="2096"
     id="namedview4641"
     showgrid="false"
     inkscape:zoom="4"
     inkscape:cx="70.30562"
     inkscape:cy="157.74806"
     inkscape:window-x="72"
     inkscape:window-y="27"
     inkscape:window-maximized="1"
     inkscape:current-layer="svg4639"
     inkscape:snap-page="true"
     showguides="true"
     inkscape:guide-bbox="true">
    <sodipodi:guide
       position="0,310"
       orientation="0,1"
       id="guide5352"
       inkscape:locked="false"
       inkscape:label=""
       inkscape:color="rgb(0,0,255)" />
    <sodipodi:guide
       position="10,0"
       orientation="1,0"
       id="guide5357"
       inkscape:locked="false"
       inkscape:label=""
       inkscape:color="rgb(0,0,255)" />
    <sodipodi:guide
       position="310,0"
       orientation="1,0"
       id="guide5359"
       inkscape:locked="false"
       inkscape:label=""
       inkscape:color="rgb(0,0,255)" />
    <sodipodi:guide
       position="0,10"
       orientation="0,1"
       id="guide5361"
       inkscape:locked="false"
       inkscape:label=""
       inkscape:color="rgb(0,0,255)" />
    <sodipodi:guide
       position="0,290"
       orientation="0,1"
       id="guide5363"
       inkscape:locked="false"
       inkscape:label=""
       inkscape:color="rgb(0,0,255)" />
  </sodipodi:namedview>
  <rect
     style="fill:#ffffff;fill-opacity:1;stroke:#000000;stroke-width:4;stroke-linecap:round;stroke-linejoin:round;stroke-miterlimit:4;stroke-dasharray:none;stroke-opacity:1"
     id="rect5342"
     width="300"
     height="300"
     x="10"
     y="10"
     ry="20"
     inkscape:label="bounding box" />
  <path
     style="fill:none;stroke:#ce7200;stroke-width:3.5;stroke-linecap:round;stroke-linejoin:round;stroke-opacity:1;stroke-miterlimit:4;stroke-dasharray:none"
     d="m 154.94477,113.96676 c 10.78338,-23.599687 11.49049,-58.866637 11.49049,-58.866637 0,0 5.92202,36.150834 14.84924,35.885669 8.92722,-0.265165 17.32412,-44.194174 17.32412,-44.194174 0,0 -1.67938,29.079766 10.25304,31.289475 11.93243,2.209709 20.94804,-31.377863 20.94804,-31.377863 0,0 -7.60139,32.6153 6.98268,40.65864 14.58408,8.043339 28.28427,-19.887379 28.28427,-19.887379 0,0 -16.44023,41.896079 -7.51301,47.464539 8.92723,5.56847 27.48878,-18.826714 27.48878,-18.826714 0,0 -13.78858,28.991374 -6.8059,54.270444"
     id="path5320"
     inkscape:connector-curvature="0"
     inkscape:label="crownBase" />
  <path
     id="path4684"
     style="fill:none;stroke:#ce7200;stroke-width:3.5;stroke-linecap:round;stroke-linejoin:round;stroke-opacity:1;stroke-miterlimit:4;stroke-dasharray:none;fill-opacity:1"
     d="m 110.50042,110.38479 c -0.4794,7.07106 -1.31834,15.34062 0.59924,24.68881 m -22.771236,1.55803 c 11.505466,-1.43818 12.943646,-2.03743 21.812446,-1.43818 8.8688,0.59924 14.14214,2.03742 22.41169,1.07864 M 88.448272,109.78554 c 10.067283,-1.07863 13.662738,0 22.171988,0.2397 8.50926,0.2397 19.65518,-0.59924 19.65518,-0.59924 0,0 -0.59925,-5.27334 -0.2397,-9.70774 0.35954,-4.434399 -1.31834,-15.340622 -1.31834,-15.340622 0,0 -8.74895,0.359546 -17.97729,-0.599243 -9.22834,-0.958789 -20.853655,0.119849 -20.853655,0.119849 m 20.853655,-0.119849 c 0.2397,-8.029856 0.11985,-15.580319 -1.07863,-22.411689 M 88.328424,141.18588 c -0.599244,-17.0185 -0.599244,-31.04079 0.599243,-44.343987 1.198486,-13.303195 0.359545,-35.23549 0.359545,-35.23549 0,0 10.786378,-1.198486 20.973508,-0.83894 10.18713,0.359545 12.8238,0.719091 21.81245,-0.239698 M 61.841881,56.093367 c -2.876366,8.6291 -5.752733,19.415474 -6.711522,28.883514 -0.958789,9.46804 -3.475609,20.014719 -5.393187,24.928509 m 27.56518,19.05593 c -8.868797,-8.6291 -16.539108,-16.7788 -26.846088,-22.05214 M 47.3402,75.62869 c 10.786374,0.83894 13.063498,0.359546 20.494112,-0.359546 7.430613,-0.719092 8.269554,0.239697 8.269554,0.239697 0,0 1.797729,41.347769 -26.126997,64.718249 M 61.841881,56.093367 c -3.355761,9.228343 -5.99243,20.973506 -7.430613,31.280486 -1.438184,10.306981 -3.235913,17.258197 -4.674096,22.531537"
     inkscape:label="letters" />
  <path
     style="fill:none;stroke:#ce7200;stroke-width:3.5;stroke-linecap:round;stroke-linejoin:round;stroke-opacity:1;stroke-miterlimit:4;stroke-dasharray:none;fill-opacity:1"
     d="m 164.84427,50.503929 c 5.39169,-2.740039 -1.23744,-14.760854 -5.03814,-13.258252 -3.8007,1.502601 0.0884,15.99829 5.03814,13.258252 z"
     id="path5324"
     inkscape:connector-curvature="0"
     inkscape:label="crown1" />
  <path
     style="fill:none;stroke:#ce7200;stroke-width:3.5;stroke-linecap:round;stroke-linejoin:round;stroke-opacity:1;stroke-miterlimit:4;stroke-dasharray:none;fill-opacity:1"
     d="m 198.16667,42.372201 c 7.07107,-1.590991 4.77298,-19.533825 -2.65165,-17.942835 -7.42462,1.59099 -3.97747,18.649941 2.65165,17.942835 z"
     id="path5322"
     inkscape:connector-curvature="0"
     inkscape:label="crown2" />
  <path
     style="fill:none;stroke:#ce7200;stroke-width:3.5;stroke-linecap:round;stroke-linejoin:round;stroke-opacity:1;stroke-miterlimit:4;stroke-dasharray:none;fill-opacity:1"
     d="m 230.6052,41.930259 c 8.57367,2.474874 12.28598,-19.445436 5.92202,-21.124815 -6.36396,-1.679379 -14.93763,17.412504 -5.92202,21.124815 z"
     id="path5326"
     inkscape:connector-curvature="0"
     inkscape:label="crown3" />
  <path
     style="fill:none;stroke:#ce7200;stroke-width:3.5;stroke-linecap:round;stroke-linejoin:round;stroke-opacity:1;stroke-miterlimit:4;stroke-dasharray:none;fill-opacity:1"
     d="m 267.46314,63.408627 c 6.18718,4.861359 15.9099,-9.634329 11.31371,-13.965359 -4.5962,-4.331029 -16.79379,7.954952 -11.31371,13.965359 z"
     id="path5328"
     inkscape:connector-curvature="0"
     inkscape:label="crown4" />
  <path
     style="fill:none;stroke:#ce7200;stroke-width:3.5;stroke-linecap:round;stroke-linejoin:round;stroke-opacity:1;stroke-miterlimit:4;stroke-dasharray:none;fill-opacity:1"
     d="m 288.49957,92.841947 c 2.56326,3.800699 13.96535,-4.242641 11.22532,-8.485281 -2.74004,-4.242641 -14.49569,4.154252 -11.22532,8.485281 z"
     id="path5332"
     inkscape:connector-curvature="0"
     inkscape:label="crown5" />
  <text
     xml:space="preserve"
     style="font-style:normal;font-weight:normal;font-size:142.35913086px;line-height:1.25;font-family:sans-serif;letter-spacing:19.45000076px;word-spacing:0px;display:none;fill:#820009;fill-opacity:1;stroke:none;stroke-width:1;stroke-miterlimit:4;stroke-dasharray:none;stroke-opacity:1"
     x="39.430611"
     y="254.26782"
     id="text5336"
     inkscape:label="HIME"><tspan
       sodipodi:role="line"
       id="tspan5334"
       x="39.430611"
       y="254.26782"
       style="font-style:normal;font-variant:normal;font-weight:normal;font-stretch:normal;font-size:142.35913086px;font-family:'alphabetized cassette tapes';-inkscape-font-specification:'alphabetized cassette tapes, Normal';font-variant-ligatures:normal;font-variant-caps:normal;font-variant-numeric:normal;font-feature-settings:normal;text-align:start;letter-spacing:19.45000076px;writing-mode:lr-tb;text-anchor:start;fill:#820009;fill-opacity:1;stroke:none;stroke-width:1;stroke-miterlimit:4;stroke-dasharray:none;stroke-opacity:1">HIME</tspan></text>
  <text
     xml:space="preserve"
     style="font-style:normal;font-variant:normal;font-weight:normal;font-stretch:normal;font-size:40px;line-height:1.25;font-family:'alphabetized cassette tapes';-inkscape-font-specification:'alphabetized cassette tapes, Normal';font-variant-ligatures:normal;font-variant-caps:normal;font-variant-numeric:normal;font-feature-settings:normal;text-align:start;letter-spacing:6.80000019px;word-spacing:0px;writing-mode:lr-tb;text-anchor:start;display:none;fill:#8500c5;fill-opacity:1;stroke:none"
     x="36.869999"
     y="298.46399"
     id="text5340"
     inkscape:label="Neutron Detector"><tspan
       sodipodi:role="line"
       id="tspan5338"
       x="36.869999"
       y="298.46399">Neutron Detector</tspan></text>
  <g
     aria-label="HIME"
     style="font-style:normal;font-weight:normal;font-size:142.35913086px;line-height:1.25;font-family:sans-serif;letter-spacing:19.45000076px;word-spacing:0px;fill:#820009;fill-opacity:1;stroke:none;stroke-width:1;stroke-miterlimit:4;stroke-dasharray:none;stroke-opacity:1"
     id="text833"
     inkscape:label="HIME_path">
    <path
       d="m 40.000047,173.40784 q 0.142359,-1.4236 0.854155,-2.27775 0.854155,-0.85415 1.850669,-0.85415 0.996514,-0.14236 1.850668,0.56943 0.854155,0.7118 1.138873,2.27775 0,10.53457 0,20.92679 0.14236,10.39222 0.284719,20.78443 5.552006,-1.13887 11.104012,-2.27774 5.552006,-1.13888 11.104012,-2.27775 V 189.9215 q 0,-4.98257 -0.142359,-9.96514 -0.142359,-5.12493 -0.854155,-9.96514 -0.284718,-0.56944 -0.284718,-0.7118 v -0.99651 l 5.552006,-1.28123 q 1.138873,5.40964 1.281232,11.24637 0.142359,5.83672 0.142359,11.38873 v 20.35735 q 1.281233,0.7118 1.281233,2.13539 0,1.42359 -1.281233,2.56246 v 40.57236 l -5.694365,0.42707 v -39.57583 q -5.552006,1.13887 -11.104012,2.27774 -5.409647,1.13887 -10.961653,2.27775 0.142359,8.54155 0.142359,17.22545 0.142359,8.54155 0.142359,17.22546 -0.284718,1.28123 -0.996514,1.99302 -0.711796,0.7118 -1.708309,0.7118 -0.854155,0 -1.70831,-0.7118 -0.854155,-0.56943 -1.281232,-1.7083 0,-8.54155 -0.142359,-16.79838 0,-8.25683 -0.142359,-16.79838 h -0.427078 q -0.284718,0.14236 -0.854155,0.14236 h -0.711795 q 0.142359,-1.56595 0.142359,-2.84718 0,-1.42359 0,-2.84719 l 1.708309,-0.28471 q -0.142359,-10.67694 -0.284718,-21.21151 0,-10.67694 0,-21.35387 z"
       style="font-style:normal;font-variant:normal;font-weight:normal;font-stretch:normal;font-size:142.35913086px;font-family:'alphabetized cassette tapes';-inkscape-font-specification:'alphabetized cassette tapes, Normal';font-variant-ligatures:normal;font-variant-caps:normal;font-variant-numeric:normal;font-feature-settings:normal;text-align:start;letter-spacing:19.45000076px;writing-mode:lr-tb;text-anchor:start;fill:#820009;fill-opacity:1;stroke:none;stroke-width:1;stroke-miterlimit:4;stroke-dasharray:none;stroke-opacity:1"
       id="path835"
       inkscape:connector-curvature="0" />
    <path
       d="m 100.73418,248.4311 q 2.42011,-1.28123 3.8437,0.14236 1.70831,0 3.41662,0 1.70831,-0.14236 3.55898,-0.14236 0.99651,-9.11099 0.85415,-18.07961 0,-9.11099 -0.71179,-18.22197 -0.56944,-9.11098 -1.4236,-18.07961 -0.85415,-9.11098 -1.28123,-18.36433 -3.55898,0.28472 -6.69088,0 -3.131898,-0.42708 -4.697848,-1.99303 -0.854155,-1.13887 -0.711796,-2.13538 0,-1.13888 0.569437,-1.70831 0.711795,-0.7118 1.708309,-0.85416 0.996518,-0.14236 1.993028,0.42708 0.56944,-0.14236 1.13887,0.14236 0.56944,0.28472 1.13888,0.42708 1.70831,0.14236 3.41662,0.14236 1.7083,-0.14236 3.41661,-0.28472 0.99652,-0.7118 2.42011,-0.28472 l 8.11447,-1.28123 q 2.70482,0.28472 2.98954,2.4201 0.28472,2.13539 -2.13538,3.27426 l -7.11796,1.13888 q 0.42708,9.25334 1.28123,18.36432 0.85416,8.96863 1.56595,18.07961 0.7118,9.11099 0.85416,18.22197 0.14236,9.11099 -0.85416,18.36433 5.97908,-0.42708 12.24289,-0.42708 1.56595,0.14236 2.27774,0.99652 0.7118,0.85415 0.7118,1.85066 0,0.99652 -0.85416,1.85067 -0.71179,0.85416 -2.13538,0.99652 -6.12145,0 -12.24289,0.28472 -5.97908,0.28471 -12.10053,0.28471 -1.28123,0.14236 -2.70482,0.28472 -1.42359,0 -2.4201,-1.13887 v -4.27077 z"
       style="font-style:normal;font-variant:normal;font-weight:normal;font-stretch:normal;font-size:142.35913086px;font-family:'alphabetized cassette tapes';-inkscape-font-specification:'alphabetized cassette tapes, Normal';font-variant-ligatures:normal;font-variant-caps:normal;font-variant-numeric:normal;font-feature-settings:normal;text-align:start;letter-spacing:19.45000076px;writing-mode:lr-tb;text-anchor:start;fill:#820009;fill-opacity:1;stroke:none;stroke-width:1;stroke-miterlimit:4;stroke-dasharray:none;stroke-opacity:1"
       id="path837"
       inkscape:connector-curvature="0" />
    <path
       d="m 154.63496,250.99356 q -0.28472,1.28123 -0.99652,1.99303 -0.71179,0.7118 -1.70831,0.7118 -0.85415,0 -1.70831,-0.56944 -0.85415,-0.7118 -1.28123,-1.85067 0.7118,-15.94422 2.98954,-31.46137 2.42011,-15.6595 6.40617,-31.17665 1.42359,-4.98257 2.70482,-10.67693 1.28123,-5.69437 3.70134,-10.24986 0.99651,-0.28472 1.99302,-0.42708 0.99652,-0.28471 1.99303,-0.56943 1.28123,0.99651 1.85067,2.70482 0.7118,1.70831 0.85416,3.70134 0.28471,1.99303 0.28471,3.98605 0,1.85067 0.14236,3.27426 1.13888,6.40616 2.13539,12.95468 0.99651,6.54852 2.27775,13.09704 1.28123,6.54852 2.98954,13.09704 1.70831,6.40617 4.12841,12.52761 l 0.99652,-2.27775 q 0.85415,-1.99303 1.28123,-4.12841 0.56943,-2.27775 0.85415,-4.41314 0.7118,-4.41313 1.99303,-11.10401 1.28123,-6.83324 3.1319,-13.66647 1.85067,-6.9756 4.41314,-12.95469 2.56246,-6.12144 5.83672,-9.25334 l 4.69785,1.28123 q 3.1319,9.25335 3.8437,19.07613 0.85415,9.68042 0.85415,19.64556 0,9.96514 0,19.78792 0.14236,9.82278 2.13539,19.36084 0.14236,1.56595 -0.56944,2.4201 -0.56943,0.85416 -1.56595,0.99652 -0.85415,0.28471 -1.85067,-0.28472 -0.99651,-0.56944 -1.56595,-1.85067 -1.13887,-5.55201 -1.70831,-11.38873 -0.42707,-5.97908 -0.56943,-11.81581 -0.14236,-5.97908 -0.28472,-11.81581 0,-5.83672 -0.28472,-11.24637 0,-1.28123 -0.28472,-5.40964 -0.14236,-4.12842 -0.42708,-8.54155 -0.28471,-4.55549 -0.71179,-8.11447 -0.28472,-3.70134 -0.7118,-3.98606 -2.70482,6.54852 -4.69785,13.38176 -1.99303,6.69088 -3.70134,13.66648 -0.85415,3.27426 -1.42359,6.69088 -0.42707,3.27426 -1.13887,6.69087 -0.14236,1.28124 -0.99651,4.69786 -0.85416,3.27426 -2.42011,6.54852 -1.42359,3.1319 -3.55898,4.84021 -1.99303,1.70831 -4.69785,-0.42708 -0.71179,-0.56944 -1.42359,-2.13539 -0.7118,-1.56595 -1.28123,-3.1319 -0.56944,-1.70831 -0.99652,-2.98954 -0.28471,-1.42359 -0.42707,-1.70831 -3.27426,-9.82278 -4.98257,-19.78792 -1.70831,-10.1075 -3.70134,-20.215 -0.14236,-0.42707 -0.42708,-2.98954 -0.28472,-2.56246 -0.56943,-5.69436 -0.7118,2.70482 -1.4236,5.40964 -0.56943,2.56247 -1.13887,4.98257 -3.8437,15.09007 -6.2638,30.18014 -2.42011,14.94771 -2.98954,30.60721 z"
       style="font-style:normal;font-variant:normal;font-weight:normal;font-stretch:normal;font-size:142.35913086px;font-family:'alphabetized cassette tapes';-inkscape-font-specification:'alphabetized cassette tapes, Normal';font-variant-ligatures:normal;font-variant-caps:normal;font-variant-numeric:normal;font-feature-settings:normal;text-align:start;letter-spacing:19.45000076px;writing-mode:lr-tb;text-anchor:start;fill:#820009;fill-opacity:1;stroke:none;stroke-width:1;stroke-miterlimit:4;stroke-dasharray:none;stroke-opacity:1"
       id="path839"
       inkscape:connector-curvature="0" />
    <path
       d="m 238.1465,216.40029 q -0.85415,-0.28471 -1.13887,-0.56943 -0.99651,-0.7118 -1.28123,-1.56595 -0.28472,-0.99652 -0.14236,-1.85067 0.28472,-0.85416 0.99651,-1.28123 0.7118,-0.56944 1.70831,-0.56944 0.28472,-4.98257 0.28472,-9.96514 0.14236,-5.12493 0.28472,-10.24986 0,-0.56943 -0.14236,-1.99303 0,-1.42359 -0.14236,-3.27426 0,-1.99302 0,-4.12841 0,-2.13539 0.14236,-4.12841 -1.13887,-0.14236 -1.70831,-0.99652 -0.56944,-0.85415 -0.56944,-1.70831 0,-0.99651 0.56944,-1.85067 0.56944,-0.85415 1.85067,-1.13887 0.42708,0 0.71179,-0.14236 0.42708,-1.28123 1.13888,-1.85067 1.42359,-0.85415 2.56246,-0.42708 1.28123,0.28472 1.70831,1.4236 8.25683,-1.28124 16.51366,-1.70831 8.39919,-0.56944 16.65602,-0.85416 1.56595,0.14236 2.27774,0.99652 0.7118,0.85415 0.7118,1.85066 0,0.99652 -0.85416,1.85067 -0.71179,0.85416 -2.13538,0.99652 -2.42011,0 -3.70134,0.14236 -1.13887,0 -1.85067,0 -0.71179,0 -1.56595,0.14236 -0.85415,0 -2.70482,0.14235 -5.97909,0.7118 -11.95817,1.13888 -5.97908,0.28472 -11.95817,1.13887 0,0.85416 0.14236,1.56595 0.14236,6.12144 0,12.5276 -0.14236,5.55201 -0.28472,11.24638 0,5.552 -0.28471,11.10401 2.56246,0.42708 5.26728,0.14236 2.70483,-0.28472 5.40965,-0.85416 2.70482,-0.71179 5.26729,-1.42359 2.56246,-0.71179 4.84021,-1.42359 1.42359,-0.42708 2.4201,0.28472 0.99652,0.56943 1.28124,1.56595 0.28472,0.85415 -0.14236,1.99303 -0.42708,0.99651 -1.85067,1.56595 -4.98257,1.42359 -11.10401,2.98954 -5.97909,1.42359 -11.67345,0.71179 -0.28472,7.26032 -0.56944,14.37828 -0.28472,6.97559 -0.28472,14.23591 2.42011,0.42708 5.97909,0.28472 3.55898,-0.14236 7.11795,-0.56944 3.70134,-0.56944 6.83324,-1.13887 3.1319,-0.56944 4.69785,-0.85416 2.70483,0.28472 2.98954,2.42011 0.28472,2.13539 -2.13538,3.27426 -2.13539,0.42708 -5.26729,0.99651 -3.1319,0.56944 -6.69088,0.99652 -3.55898,0.42707 -7.11796,0.56943 -3.55897,0.14236 -6.54852,-0.28472 -0.28471,1.13888 -1.13887,1.70831 -0.71179,0.42708 -1.56595,0.28472 -0.85415,0 -1.70831,-0.56943 -0.71179,-0.56944 -1.13887,-1.70831 v -1.56595 l -1.42359,-1.28124 -0.42708,-3.41662 1.28123,-2.70482 z"
       style="font-style:normal;font-variant:normal;font-weight:normal;font-stretch:normal;font-size:142.35913086px;font-family:'alphabetized cassette tapes';-inkscape-font-specification:'alphabetized cassette tapes, Normal';font-variant-ligatures:normal;font-variant-caps:normal;font-variant-numeric:normal;font-feature-settings:normal;text-align:start;letter-spacing:19.45000076px;writing-mode:lr-tb;text-anchor:start;fill:#820009;fill-opacity:1;stroke:none;stroke-width:1;stroke-miterlimit:4;stroke-dasharray:none;stroke-opacity:1"
       id="path841"
       inkscape:connector-curvature="0" />
  </g>
  <g
     aria-label="Neutron Detector"
     style="font-style:normal;font-variant:normal;font-weight:normal;font-stretch:normal;font-size:40px;line-height:1.25;font-family:'alphabetized cassette tapes';-inkscape-font-specification:'alphabetized cassette tapes, Normal';font-variant-ligatures:normal;font-variant-caps:normal;font-variant-numeric:normal;font-feature-settings:normal;text-align:start;letter-spacing:6.80000019px;word-spacing:0px;writing-mode:lr-tb;text-anchor:start;fill:#8500c5;fill-opacity:1;stroke:none"
     id="text846"
     inkscape:label="Neutron Detector path">
    <path
       d="m 38.909999,298.02399 q -0.08,0.36 -0.28,0.56 -0.2,0.2 -0.48,0.2 -0.24,0 -0.48,-0.2 -0.24,-0.16 -0.36,-0.48 0.08,-2.2 0.44,-4.32 0.36,-2.16 0.36,-4.36 0,-1.24 -0.12,-2.48 -0.12,-1.24 -0.24,-2.44 -0.08,-1.24 -0.12,-2.44 0,-1.24 0.16,-2.48 l 0.72,-0.68 q 0.72,-0.04 1.2,0.36 0.52,0.4 0.88,1 0.4,0.6 0.64,1.28 0.28,0.68 0.52,1.2 1.4,3.12 2.48,6.32 1.12,3.2 2.28,6.44 0,-5 -0.36,-9.88 -0.32,-4.92 -0.32,-9.92 0.04,-0.4 0.24,-0.64 0.24,-0.24 0.52,-0.24 0.28,-0.04 0.52,0.16 0.24,0.2 0.32,0.64 0,4.2 0.2,8.36 0.24,4.12 0.4,8.36 0.08,1.56 0.16,3.32 0.12,1.76 -0.32,3.32 l -1.32,0.32 q -0.48,-0.48 -0.8,-1.16 -0.32,-0.68 -0.6,-1.4 -0.24,-0.72 -0.48,-1.44 -0.2,-0.76 -0.4,-1.36 -0.48,-1.4 -1.04,-3.16 -0.56,-1.76 -1.2,-3.52 -0.64,-1.76 -1.36,-3.36 -0.72,-1.64 -1.48,-2.8 -0.12,1.04 -0.08,2.08 0.08,1 0.2,2.04 0.16,1 0.28,2.04 0.12,1.04 0.12,2.08 0,2.16 -0.36,4.32 -0.36,2.16 -0.44,4.36 z"
       id="path848"
       inkscape:connector-curvature="0" />
    <path
       d="m 63.829998,293.58399 q -0.44,0.36 -1.08,0.48 -0.64,0.08 -1.36,0.08 -0.68,0 -1.4,0 -0.72,-0.04 -1.36,0.08 -0.32,0.24 -0.64,0.24 h -0.12 q 0.28,1.04 1.04,1.76 0.76,0.68 1.92,0.68 0.8,0 1.48,-0.2 0.72,-0.24 1.4,-0.56 0.08,0 0.2,-0.12 0.16,-0.36 0.44,-0.56 0.12,-0.08 0.24,-0.08 0.12,-0.04 0.2,-0.08 0.32,0.2 0.56,0.4 0.28,0.16 0.56,0.36 -0.08,0.68 -0.92,1.24 -0.84,0.52 -1.92,0.84 -1.04,0.32 -2.12,0.36 -1.04,0.08 -1.56,-0.2 -1.12,-0.6 -1.84,-1.28 -0.68,-0.68 -1.04,-1.48 -0.32,-0.8 -0.36,-1.76 -0.04,-0.96 0.16,-2.2 0.12,-0.88 0.56,-1.44 0.44,-0.56 1.04,-0.84 0.64,-0.28 1.36,-0.32 0.76,-0.04 1.48,0.08 0.68,0.08 1.16,0.6 0.52,0.52 1.08,0.96 0.28,0.2 0.6,0.6 0.32,0.36 0.48,0.8 0.2,0.4 0.16,0.84 0,0.4 -0.4,0.72 z m -3.56,-2.96 q -0.6,-0.28 -1.04,-0.16 -0.44,0.08 -0.76,0.44 -0.28,0.36 -0.48,0.88 -0.16,0.48 -0.24,1 0.56,-0.2 1.16,-0.24 0.6,-0.04 1.2,-0.04 0.6,0 1.2,0 0.64,0 1.2,-0.12 -0.16,-0.24 -0.44,-0.48 -0.28,-0.28 -0.6,-0.52 -0.32,-0.24 -0.64,-0.44 -0.32,-0.2 -0.56,-0.32 z"
       id="path850"
       inkscape:connector-curvature="0" />
    <path
       d="m 73.789984,290.94399 q 0.04,-0.4 0.24,-0.64 0.24,-0.24 0.52,-0.24 0.28,-0.04 0.52,0.16 0.24,0.2 0.32,0.64 0.08,0.92 0.28,1.84 0.2,0.92 0.28,1.84 0.04,0.44 -0.04,0.96 -0.04,0.48 -0.04,0.96 1.28,-1.12 1.88,-2.52 0.6,-1.4 1.2,-2.92 0.24,-0.08 0.48,-0.12 0.28,-0.04 0.56,-0.12 l -0.04,-0.08 q 0.04,0 0.04,0.04 0.04,0 0.08,0 -0.04,0 -0.08,0.04 l 0.56,0.72 q 0.04,0.6 0,1.28 0,0.64 0.08,1.32 0.08,0.64 0.28,1.24 0.2,0.56 0.64,1.04 0.32,0.68 -0.12,1.08 -0.44,0.4 -1.08,0 -0.56,-0.6 -0.84,-1.28 -0.28,-0.72 -0.4,-1.52 -0.4,0.8 -0.92,1.6 -0.48,0.76 -1.04,1.32 -0.52,0.52 -1.08,0.72 -0.56,0.2 -1.08,-0.16 -0.44,-0.28 -0.6,-0.72 -0.12,-0.44 -0.12,-0.92 0,-0.48 0.04,-0.96 0.08,-0.52 0.04,-0.92 -0.08,-0.92 -0.28,-1.84 -0.2,-0.92 -0.28,-1.84 z"
       id="path852"
       inkscape:connector-curvature="0" />
    <path
       d="m 85.909947,287.74399 q -0.36,-0.12 -0.52,-0.32 -0.2,-0.24 -0.2,-0.48 0,-0.28 0.2,-0.48 0.16,-0.24 0.52,-0.32 1.04,0 2.12,-0.08 1.04,-0.08 2.08,-0.2 l 0.16,-5.04 q 0.04,-0.4 0.24,-0.64 0.24,-0.24 0.52,-0.24 0.28,-0.04 0.52,0.16 0.24,0.2 0.32,0.64 l -0.16,4.96 2.4,-0.12 q 0.44,0.04 0.64,0.28 0.2,0.24 0.2,0.52 0,0.28 -0.24,0.52 -0.2,0.24 -0.6,0.28 l -2.48,0.12 q -0.08,2.72 0,5.4 0.12,2.64 0.56,5.32 0.04,0.44 -0.16,0.68 -0.16,0.24 -0.44,0.28 -0.24,0.08 -0.52,-0.08 -0.28,-0.16 -0.44,-0.52 -0.44,-2.76 -0.56,-5.44 -0.08,-2.72 0,-5.48 -1.04,0.12 -2.08,0.2 -1.04,0.08 -2.08,0.08 z"
       id="path854"
       inkscape:connector-curvature="0" />
    <path
       d="m 100.70987,289.70399 q -0.12,-0.36 -0.04,-0.64 0.08,-0.28 0.28,-0.4 0.24,-0.12 0.52,-0.08 0.32,0 0.6,0.24 0.16,0.28 0.28,0.52 0.16,0.24 0.28,0.52 0.2,-0.4 0.6,-0.8 0.88,-0.84 1.72,-1.2 0.84,-0.36 1.56,-0.24 0.72,0.12 1.2,0.76 0.52,0.64 0.76,1.84 0.04,0.44 -0.16,0.68 -0.16,0.24 -0.44,0.32 -0.24,0.04 -0.52,-0.12 -0.28,-0.16 -0.44,-0.52 -0.28,-1.28 -0.88,-1.44 -0.6,-0.2 -1.64,1.04 -0.44,0.56 -0.76,1.28 -0.28,0.72 -0.48,1.52 0.04,0.68 0,1.36 0,0.68 0.08,1.36 0.08,0.6 0.12,1.16 0.08,0.52 0,1.16 -0.4,0 -0.8,0.04 -0.4,0 -0.8,0.04 -0.28,-0.92 -0.32,-2.24 -0.04,-1.36 0.16,-2.76 0,-0.92 -0.2,-1.76 -0.16,-0.84 -0.68,-1.64 z"
       id="path856"
       inkscape:connector-curvature="0" />
    <path
       d="m 120.74985,290.34399 q 0.04,0.04 0.08,0.04 1.04,0.08 1.76,0.88 0.76,0.76 1.08,1.84 0.32,1.08 0.16,2.24 -0.12,1.16 -0.84,2 -0.36,0.4 -0.92,0.6 -0.52,0.16 -1.12,0.24 -0.56,0.04 -1.16,0 -0.56,-0.04 -1,-0.08 -1.4,-0.08 -2.16,-0.84 -0.72,-0.76 -0.88,-1.8 -0.2,-1.08 0.12,-2.2 0.32,-1.16 1,-2 0.68,-0.84 1.68,-1.16 1,-0.32 2.2,0.24 z m -0.64,1.72 q -0.4,0.2 -0.68,0.08 -0.28,-0.16 -0.4,-0.44 -0.64,0.16 -1.08,0.76 -0.4,0.56 -0.6,1.28 -0.16,0.68 -0.08,1.36 0.12,0.64 0.56,0.92 0.64,0.44 1.48,0.52 0.84,0.08 1.56,0 0.84,-0.12 1.2,-0.68 0.36,-0.56 0.32,-1.28 -0.04,-0.72 -0.36,-1.4 -0.32,-0.72 -0.84,-1.08 -0.08,-0.08 -0.32,-0.16 h -0.24 q -0.24,0 -0.52,0.12 z"
       id="path858"
       inkscape:connector-curvature="0" />
    <path
       d="m 133.70978,295.58399 q -0.12,-1.2 -0.4,-2.36 -0.24,-1.16 -0.8,-2.16 -0.48,-0.36 -0.32,-1.08 l 0.08,-0.16 1.32,-0.08 q 0.36,0.56 0.6,1.2 0.28,0.64 0.48,1.32 0.32,-0.56 0.72,-1.08 0.4,-0.56 0.88,-1.04 0.36,-0.32 0.8,-0.6 0.44,-0.28 0.92,-0.4 0.52,-0.16 1,-0.08 0.48,0.04 0.92,0.4 0.96,0.88 1.32,2.08 0.36,1.16 0.4,2.44 0.08,1.28 0,2.6 -0.04,1.28 0.12,2.44 0.12,0.24 0.08,0.52 -0.04,0.28 -0.36,0.52 l -0.04,0.04 q -0.32,-0.16 -0.6,-0.32 -0.28,-0.12 -0.6,-0.24 -0.2,-0.96 -0.16,-2.08 0.04,-1.16 0.04,-2.28 0,-1.16 -0.16,-2.2 -0.16,-1.08 -0.68,-1.84 -0.36,-0.56 -0.84,-0.48 -0.48,0.08 -0.96,0.48 -0.44,0.4 -0.84,0.96 -0.36,0.52 -0.52,0.84 -0.64,1.04 -0.64,2.2 0,1.12 -0.08,2.32 v 0.36 h -0.04 l -1.32,0.12 -0.24,0.04 v -0.04 q -0.2,-1.24 -0.08,-2.36 z"
       id="path860"
       inkscape:connector-curvature="0" />
    <path
       d="m 161.98975,277.66399 q -0.36,-0.12 -0.52,-0.32 -0.2,-0.24 -0.2,-0.48 0,-0.28 0.2,-0.48 0.16,-0.24 0.52,-0.32 2.04,0.12 4.04,0.36 0.28,-0.56 0.76,-0.76 0.6,-0.16 0.88,0.24 0.32,0.4 0.12,0.84 1.52,0.28 3.2,0.84 0.84,0.28 1.64,0.6 0.84,0.28 1.56,0.76 0.68,0.44 1.4,0.84 0.72,0.4 1.24,1.04 l 1.68,2.12 q 0.44,0.56 0.48,1.36 0.08,0.76 0.2,1.48 0.24,1.28 -0.2,2.52 -0.4,1.2 -1.24,2.36 -0.84,1.16 -1.96,2.24 -1.12,1.04 -2.28,2 -1.16,0.96 -2.28,1.8 -1.08,0.84 -1.84,1.56 -0.32,0.28 -0.64,0.24 -0.28,0 -0.52,-0.2 -0.2,-0.2 -0.24,-0.52 0,-0.32 0.24,-0.64 0.96,-0.88 2.32,-1.92 1.36,-1.04 2.72,-2.24 1.36,-1.2 2.52,-2.52 1.16,-1.36 1.64,-2.76 0.52,-1.4 0.16,-2.88 -0.32,-1.48 -1.96,-2.96 -1.04,-0.88 -2.28,-1.56 -1.2,-0.64 -2.8,-1.16 -1.6,-0.52 -2.96,-0.84 -0.08,0 -0.12,0 -0.04,-0.04 -0.12,-0.04 l 0.24,1.24 q 0,-0.08 -0.04,-0.16 0,-0.08 0,-0.16 0,-0.16 0.04,0.16 0.04,0.28 0.08,0.44 l 0.28,2.28 q 0.08,1.16 0.12,2.28 0.04,1.08 -0.04,2.28 -0.08,2.88 -0.32,5.72 -0.2,2.8 -0.28,5.68 -0.08,0.36 -0.28,0.56 -0.2,0.2 -0.48,0.2 -0.24,0 -0.48,-0.2 -0.24,-0.16 -0.36,-0.48 0.04,-2 0.2,-4 0.16,-2 0.28,-3.96 0.12,-2 0.16,-4 0.04,-2 -0.12,-4 -0.08,-0.6 -0.36,-1.8 -0.24,-1.2 -0.24,-2.36 -0.92,-0.16 -1.68,-0.2 -0.8,-0.04 -2.08,-0.12 z"
       id="path862"
       inkscape:connector-curvature="0" />
    <path
       d="m 194.62968,293.58399 q -0.44,0.36 -1.08,0.48 -0.64,0.08 -1.36,0.08 -0.68,0 -1.4,0 -0.72,-0.04 -1.36,0.08 -0.32,0.24 -0.64,0.24 h -0.12 q 0.28,1.04 1.04,1.76 0.76,0.68 1.92,0.68 0.8,0 1.48,-0.2 0.72,-0.24 1.4,-0.56 0.08,0 0.2,-0.12 0.16,-0.36 0.44,-0.56 0.12,-0.08 0.24,-0.08 0.12,-0.04 0.2,-0.08 0.32,0.2 0.56,0.4 0.28,0.16 0.56,0.36 -0.08,0.68 -0.92,1.24 -0.84,0.52 -1.92,0.84 -1.04,0.32 -2.12,0.36 -1.04,0.08 -1.56,-0.2 -1.12,-0.6 -1.84,-1.28 -0.68,-0.68 -1.04,-1.48 -0.32,-0.8 -0.36,-1.76 -0.04,-0.96 0.16,-2.2 0.12,-0.88 0.56,-1.44 0.44,-0.56 1.04,-0.84 0.64,-0.28 1.36,-0.32 0.76,-0.04 1.48,0.08 0.68,0.08 1.16,0.6 0.52,0.52 1.08,0.96 0.28,0.2 0.6,0.6 0.32,0.36 0.48,0.8 0.2,0.4 0.16,0.84 0,0.4 -0.4,0.72 z m -3.56,-2.96 q -0.6,-0.28 -1.04,-0.16 -0.44,0.08 -0.76,0.44 -0.28,0.36 -0.48,0.88 -0.16,0.48 -0.24,1 0.56,-0.2 1.16,-0.24 0.6,-0.04 1.2,-0.04 0.6,0 1.2,0 0.64,0 1.2,-0.12 -0.16,-0.24 -0.44,-0.48 -0.28,-0.28 -0.6,-0.52 -0.32,-0.24 -0.64,-0.44 -0.32,-0.2 -0.56,-0.32 z"
       id="path864"
       inkscape:connector-curvature="0" />
    <path
       d="m 200.66967,287.74399 q -0.36,-0.12 -0.52,-0.32 -0.2,-0.24 -0.2,-0.48 0,-0.28 0.2,-0.48 0.16,-0.24 0.52,-0.32 1.04,0 2.12,-0.08 1.04,-0.08 2.08,-0.2 l 0.16,-5.04 q 0.04,-0.4 0.24,-0.64 0.24,-0.24 0.52,-0.24 0.28,-0.04 0.52,0.16 0.24,0.2 0.32,0.64 l -0.16,4.96 2.4,-0.12 q 0.44,0.04 0.64,0.28 0.2,0.24 0.2,0.52 0,0.28 -0.24,0.52 -0.2,0.24 -0.6,0.28 l -2.48,0.12 q -0.08,2.72 0,5.4 0.12,2.64 0.56,5.32 0.04,0.44 -0.16,0.68 -0.16,0.24 -0.44,0.28 -0.24,0.08 -0.52,-0.08 -0.28,-0.16 -0.44,-0.52 -0.44,-2.76 -0.56,-5.44 -0.08,-2.72 0,-5.48 -1.04,0.12 -2.08,0.2 -1.04,0.08 -2.08,0.08 z"
       id="path866"
       inkscape:connector-curvature="0" />
    <path
       d="m 222.54961,293.58399 q -0.44,0.36 -1.08,0.48 -0.64,0.08 -1.36,0.08 -0.68,0 -1.4,0 -0.72,-0.04 -1.36,0.08 -0.32,0.24 -0.64,0.24 h -0.12 q 0.28,1.04 1.04,1.76 0.76,0.68 1.92,0.68 0.8,0 1.48,-0.2 0.72,-0.24 1.4,-0.56 0.08,0 0.2,-0.12 0.16,-0.36 0.44,-0.56 0.12,-0.08 0.24,-0.08 0.12,-0.04 0.2,-0.08 0.32,0.2 0.56,0.4 0.28,0.16 0.56,0.36 -0.08,0.68 -0.92,1.24 -0.84,0.52 -1.92,0.84 -1.04,0.32 -2.12,0.36 -1.04,0.08 -1.56,-0.2 -1.12,-0.6 -1.84,-1.28 -0.68,-0.68 -1.04,-1.48 -0.32,-0.8 -0.36,-1.76 -0.04,-0.96 0.16,-2.2 0.12,-0.88 0.56,-1.44 0.44,-0.56 1.04,-0.84 0.64,-0.28 1.36,-0.32 0.76,-0.04 1.48,0.08 0.68,0.08 1.16,0.6 0.52,0.52 1.08,0.96 0.28,0.2 0.6,0.6 0.32,0.36 0.48,0.8 0.2,0.4 0.16,0.84 0,0.4 -0.4,0.72 z m -3.56,-2.96 q -0.6,-0.28 -1.04,-0.16 -0.44,0.08 -0.76,0.44 -0.28,0.36 -0.48,0.88 -0.16,0.48 -0.24,1 0.56,-0.2 1.16,-0.24 0.6,-0.04 1.2,-0.04 0.6,0 1.2,0 0.64,0 1.2,-0.12 -0.16,-0.24 -0.44,-0.48 -0.28,-0.28 -0.6,-0.52 -0.32,-0.24 -0.64,-0.44 -0.32,-0.2 -0.56,-0.32 z"
       id="path868"
       inkscape:connector-curvature="0" />
    <path
       d="m 239.5496,291.38399 q -0.08,0.36 -0.28,0.56 -0.2,0.2 -0.48,0.2 -0.24,0 -0.48,-0.16 -0.24,-0.2 -0.36,-0.52 v -0.04 q -0.44,-0.16 -0.92,-0.32 -0.48,-0.16 -0.96,-0.24 -0.84,-0.08 -1.36,0.4 -0.52,0.48 -0.76,1.2 -0.24,0.72 -0.16,1.52 0.08,0.8 0.44,1.36 0.44,0.64 1.04,0.88 0.6,0.24 1.24,0.24 0.64,-0.04 1.28,-0.24 0.68,-0.2 1.24,-0.48 0.36,-0.08 0.6,0.04 0.28,0.12 0.4,0.36 0.12,0.2 0.04,0.48 -0.04,0.28 -0.32,0.52 -1.4,0.68 -2.8,0.8 -1.36,0.12 -2.44,-0.4 -1.08,-0.52 -1.76,-1.64 -0.64,-1.16 -0.56,-2.96 0.04,-0.56 0.24,-1.16 0.24,-0.6 0.6,-0.96 0.32,-0.32 0.56,-0.68 0.24,-0.4 0.68,-0.48 0.6,-0.16 1.44,-0.24 0.88,-0.08 1.68,0.08 0.8,0.16 1.4,0.6 0.64,0.44 0.76,1.28 z"
       id="path870"
       inkscape:connector-curvature="0" />
    <path
       d="m 244.50955,287.74399 q -0.36,-0.12 -0.52,-0.32 -0.2,-0.24 -0.2,-0.48 0,-0.28 0.2,-0.48 0.16,-0.24 0.52,-0.32 1.04,0 2.12,-0.08 1.04,-0.08 2.08,-0.2 l 0.16,-5.04 q 0.04,-0.4 0.24,-0.64 0.24,-0.24 0.52,-0.24 0.28,-0.04 0.52,0.16 0.24,0.2 0.32,0.64 l -0.16,4.96 2.4,-0.12 q 0.44,0.04 0.64,0.28 0.2,0.24 0.2,0.52 0,0.28 -0.24,0.52 -0.2,0.24 -0.6,0.28 l -2.48,0.12 q -0.08,2.72 0,5.4 0.12,2.64 0.56,5.32 0.04,0.44 -0.16,0.68 -0.16,0.24 -0.44,0.28 -0.24,0.08 -0.52,-0.08 -0.28,-0.16 -0.44,-0.52 -0.44,-2.76 -0.56,-5.44 -0.08,-2.72 0,-5.48 -1.04,0.12 -2.08,0.2 -1.04,0.08 -2.08,0.08 z"
       id="path872"
       inkscape:connector-curvature="0" />
    <path
       d="m 263.74946,290.34399 q 0.04,0.04 0.08,0.04 1.04,0.08 1.76,0.88 0.76,0.76 1.08,1.84 0.32,1.08 0.16,2.24 -0.12,1.16 -0.84,2 -0.36,0.4 -0.92,0.6 -0.52,0.16 -1.12,0.24 -0.56,0.04 -1.16,0 -0.56,-0.04 -1,-0.08 -1.4,-0.08 -2.16,-0.84 -0.72,-0.76 -0.88,-1.8 -0.2,-1.08 0.12,-2.2 0.32,-1.16 1,-2 0.68,-0.84 1.68,-1.16 1,-0.32 2.2,0.24 z m -0.64,1.72 q -0.4,0.2 -0.68,0.08 -0.28,-0.16 -0.4,-0.44 -0.64,0.16 -1.08,0.76 -0.4,0.56 -0.6,1.28 -0.16,0.68 -0.08,1.36 0.12,0.64 0.56,0.92 0.64,0.44 1.48,0.52 0.84,0.08 1.56,0 0.84,-0.12 1.2,-0.68 0.36,-0.56 0.32,-1.28 -0.04,-0.72 -0.36,-1.4 -0.32,-0.72 -0.84,-1.08 -0.08,-0.08 -0.32,-0.16 h -0.24 q -0.24,0 -0.52,0.12 z"
       id="path874"
       inkscape:connector-curvature="0" />
    <path
       d="m 275.54939,289.70399 q -0.12,-0.36 -0.04,-0.64 0.08,-0.28 0.28,-0.4 0.24,-0.12 0.52,-0.08 0.32,0 0.6,0.24 0.16,0.28 0.28,0.52 0.16,0.24 0.28,0.52 0.2,-0.4 0.6,-0.8 0.88,-0.84 1.72,-1.2 0.84,-0.36 1.56,-0.24 0.72,0.12 1.2,0.76 0.52,0.64 0.76,1.84 0.04,0.44 -0.16,0.68 -0.16,0.24 -0.44,0.32 -0.24,0.04 -0.52,-0.12 -0.28,-0.16 -0.44,-0.52 -0.28,-1.28 -0.88,-1.44 -0.6,-0.2 -1.64,1.04 -0.44,0.56 -0.76,1.28 -0.28,0.72 -0.48,1.52 0.04,0.68 0,1.36 0,0.68 0.08,1.36 0.08,0.6 0.12,1.16 0.08,0.52 0,1.16 -0.4,0 -0.8,0.04 -0.4,0 -0.8,0.04 -0.28,-0.92 -0.32,-2.24 -0.04,-1.36 0.16,-2.76 0,-0.92 -0.2,-1.76 -0.16,-0.84 -0.68,-1.64 z"
       id="path876"
       inkscape:connector-curvature="0" />
  </g>
</svg>
